<mxfile host="Electron" agent="Mozilla/5.0 (Macintosh; Intel Mac OS X 10_15_7) AppleWebKit/537.36 (KHTML, like Gecko) draw.io/24.7.17 Chrome/128.0.6613.36 Electron/32.0.1 Safari/537.36" version="24.7.17">
  <diagram name="Page-1" id="eF6u0Fi1oYmeYvdufZYe">
    <mxGraphModel dx="954" dy="619" grid="1" gridSize="10" guides="1" tooltips="1" connect="1" arrows="1" fold="1" page="1" pageScale="1" pageWidth="827" pageHeight="1169" math="0" shadow="0">
      <root>
        <mxCell id="0" />
        <mxCell id="1" parent="0" />
        <mxCell id="6mnyM7W6sN1k9Xe21Ko4-1" value="&lt;h1 style=&quot;margin-top: 0px;&quot;&gt;&lt;p style=&quot;margin: 0px; font-variant-numeric: normal; font-variant-east-asian: normal; font-variant-alternates: normal; font-size-adjust: none; font-kerning: auto; font-optical-sizing: auto; font-feature-settings: normal; font-variation-settings: normal; font-variant-position: normal; font-weight: 400; font-stretch: normal; line-height: normal; color: rgb(0, 0, 0);&quot; class=&quot;p1&quot;&gt;&lt;font face=&quot;Verdana&quot; style=&quot;font-size: 14px;&quot;&gt;The hotel is &lt;span style=&quot;background-color: rgb(205, 162, 190);&quot;&gt;located&lt;/span&gt;&amp;nbsp;in the &lt;span style=&quot;background-color: rgb(204, 255, 204);&quot;&gt;middle of business district&lt;/span&gt; and &lt;span style=&quot;background-color: rgb(204, 255, 204);&quot;&gt;next to the library&lt;/span&gt;&amp;nbsp;&lt;/font&gt;&lt;span style=&quot;background-color: initial; font-family: Verdana; font-size: 14px;&quot;&gt;[&lt;/span&gt;&lt;u style=&quot;background-color: initial; font-family: Verdana; font-size: 14px;&quot;&gt;LOCATION&lt;/u&gt;&lt;span style=&quot;background-color: initial; font-family: Verdana; font-size: 14px;&quot;&gt;].&amp;nbsp;&lt;/span&gt;&lt;span style=&quot;font-size: 14px; font-family: Verdana; background-color: initial;&quot;&gt;The hotel lobby has &lt;/span&gt;&lt;span style=&quot;font-size: 14px; font-family: Verdana; background-color: rgb(153, 255, 153);&quot;&gt;nice welcome feel&lt;/span&gt;&lt;span style=&quot;font-size: 14px; font-family: Verdana; background-color: initial;&quot;&gt;&amp;nbsp;[&lt;/span&gt;&lt;u style=&quot;font-size: 14px; font-family: Verdana; background-color: initial;&quot;&gt;SERVICE&lt;/u&gt;&lt;span style=&quot;font-size: 14px; font-family: Verdana; background-color: initial;&quot;&gt;].&amp;nbsp;&amp;nbsp;&lt;/span&gt;&lt;/p&gt;&lt;p style=&quot;margin: 0px; font-variant-numeric: normal; font-variant-east-asian: normal; font-variant-alternates: normal; font-size-adjust: none; font-kerning: auto; font-optical-sizing: auto; font-feature-settings: normal; font-variation-settings: normal; font-variant-position: normal; font-weight: 400; font-stretch: normal; line-height: normal; color: rgb(0, 0, 0);&quot; class=&quot;p1&quot;&gt;&lt;font face=&quot;Verdana&quot; style=&quot;font-size: 14px;&quot;&gt;At one point &lt;span style=&quot;background-color: rgb(205, 162, 190);&quot;&gt;room door&lt;/span&gt;&amp;nbsp;ran &lt;span style=&quot;background-color: rgb(255, 204, 204);&quot;&gt;out of battery&lt;/span&gt;&amp;nbsp;&lt;/font&gt;&lt;span style=&quot;background-color: initial; font-family: Verdana; font-size: 14px;&quot;&gt;[&lt;/span&gt;&lt;u style=&quot;background-color: initial; font-family: Verdana; font-size: 14px;&quot;&gt;ROOM&lt;/u&gt;&lt;span style=&quot;background-color: initial; font-family: Verdana; font-size: 14px;&quot;&gt;]&amp;nbsp;&lt;/span&gt;&lt;span style=&quot;background-color: initial; font-size: 14px; font-family: Verdana;&quot;&gt;and we had to call for both an engineer and security. &lt;/span&gt;&lt;span style=&quot;font-size: 14px; font-family: Verdana; background-color: rgb(255, 153, 153);&quot;&gt;The wait was longer than expected&lt;/span&gt;&lt;span style=&quot;background-color: initial; font-size: 14px; font-family: Verdana;&quot;&gt;&amp;nbsp;[&lt;/span&gt;&lt;u style=&quot;background-color: initial; font-size: 14px; font-family: Verdana;&quot;&gt;SERVICE&lt;/u&gt;&lt;span style=&quot;background-color: initial; font-size: 14px; font-family: Verdana;&quot;&gt;], with that said the &lt;/span&gt;&lt;span style=&quot;font-size: 14px; font-family: Verdana; background-color: rgb(205, 162, 190);&quot;&gt;staff&lt;/span&gt;&lt;span style=&quot;background-color: initial; font-size: 14px; font-family: Verdana;&quot;&gt;&amp;nbsp;were &lt;/span&gt;&lt;span style=&quot;font-size: 14px; font-family: Verdana; background-color: rgb(153, 255, 153);&quot;&gt;friendly&lt;/span&gt;&lt;span style=&quot;background-color: initial; font-size: 14px; font-family: Verdana;&quot;&gt; and &lt;/span&gt;&lt;span style=&quot;font-size: 14px; font-family: Verdana; background-color: rgb(153, 255, 153);&quot;&gt;enjoyable&lt;/span&gt;&lt;span style=&quot;background-color: initial; font-size: 14px; font-family: Verdana;&quot;&gt;&amp;nbsp;[&lt;u&gt;SERVICE&lt;/u&gt;] to talk to.&amp;nbsp;&lt;/span&gt;&lt;/p&gt;&lt;p style=&quot;margin: 0px; font-variant-numeric: normal; font-variant-east-asian: normal; font-variant-alternates: normal; font-size-adjust: none; font-kerning: auto; font-optical-sizing: auto; font-feature-settings: normal; font-variation-settings: normal; font-variant-position: normal; font-weight: 400; font-stretch: normal; line-height: normal; color: rgb(0, 0, 0);&quot; class=&quot;p1&quot;&gt;&lt;font face=&quot;Verdana&quot; style=&quot;font-size: 14px;&quot;&gt;The good: very &lt;span style=&quot;background-color: rgb(153, 255, 153);&quot;&gt;friendly&lt;/span&gt; &lt;span style=&quot;background-color: rgb(205, 162, 190);&quot;&gt;staff&lt;/span&gt;&amp;nbsp;[SERVICE],&amp;nbsp;&lt;span style=&quot;background-color: rgb(205, 162, 190);&quot;&gt;room&lt;/span&gt; and &lt;span style=&quot;background-color: rgb(205, 162, 190);&quot;&gt;hotel&lt;/span&gt; is &lt;span style=&quot;background-color: rgb(153, 255, 153);&quot;&gt;clean&lt;/span&gt;&amp;nbsp;[&lt;u&gt;CLEANLINESS&lt;/u&gt;] and &lt;span style=&quot;background-color: rgb(153, 255, 153);&quot;&gt;welcoming&lt;/span&gt;, and &lt;span style=&quot;background-color: rgb(204, 255, 204);&quot;&gt;average sized&lt;/span&gt; &lt;span style=&quot;background-color: rgb(205, 162, 190);&quot;&gt;room and bathroom&lt;/span&gt;&amp;nbsp;[&lt;u&gt;ROOM&lt;/u&gt;].&lt;/font&gt;&lt;/p&gt;&lt;p style=&quot;margin: 0px; font-variant-numeric: normal; font-variant-east-asian: normal; font-variant-alternates: normal; font-size-adjust: none; font-kerning: auto; font-optical-sizing: auto; font-feature-settings: normal; font-variation-settings: normal; font-variant-position: normal; font-weight: 400; font-stretch: normal; line-height: normal; color: rgb(0, 0, 0);&quot; class=&quot;p1&quot;&gt;&lt;font face=&quot;Verdana&quot; style=&quot;font-size: 14px;&quot;&gt;The not so good: &lt;span style=&quot;background-color: rgb(255, 204, 204);&quot;&gt;the lack of easy pickup and drop off area&lt;/span&gt;&amp;nbsp;[&lt;u&gt;LOCATION&lt;/u&gt;],&amp;nbsp;&amp;nbsp;&lt;span style=&quot;background-color: rgb(255, 153, 153);&quot;&gt;the cost of parking&lt;/span&gt;, and&amp;nbsp;&lt;span style=&quot;background-color: rgb(255, 153, 153);&quot;&gt;internet is not free&lt;/span&gt;&amp;nbsp;[&lt;u&gt;VALUE&lt;/u&gt;].&lt;/font&gt;&lt;/p&gt;&lt;p style=&quot;margin: 0px; font-variant-numeric: normal; font-variant-east-asian: normal; font-variant-alternates: normal; font-size-adjust: none; font-kerning: auto; font-optical-sizing: auto; font-feature-settings: normal; font-variation-settings: normal; font-variant-position: normal; font-weight: 400; font-stretch: normal; line-height: normal; color: rgb(0, 0, 0);&quot; class=&quot;p1&quot;&gt;&lt;font face=&quot;Verdana&quot; style=&quot;font-size: 14px;&quot;&gt;Overall it&#39;s a &lt;span style=&quot;background-color: rgb(153, 255, 153);&quot;&gt;nice&lt;/span&gt; &lt;span style=&quot;background-color: rgb(205, 162, 190);&quot;&gt;hotel&lt;/span&gt;&amp;nbsp;[&lt;u&gt;HOTEL&lt;/u&gt;] for short stay or for business.&lt;/font&gt;&lt;br&gt;&lt;/p&gt;&lt;/h1&gt;" style="text;html=1;whiteSpace=wrap;overflow=hidden;rounded=1;strokeColor=#000000;strokeWidth=3;fillColor=#f5f5f5;fontColor=#333333;perimeterSpacing=0;spacingLeft=20;spacingRight=20;spacingBottom=10;spacingTop=10;glass=0;shadow=0;" vertex="1" parent="1">
          <mxGeometry x="40" y="160" width="520" height="440" as="geometry" />
        </mxCell>
        <mxCell id="6mnyM7W6sN1k9Xe21Ko4-2" value="&lt;h1 style=&quot;text-align: justify; margin-top: 0px; font-size: 14px;&quot;&gt;&lt;span style=&quot;font-family: Verdana; background-color: initial;&quot;&gt;&lt;span style=&quot;font-weight: normal;&quot;&gt;User: &lt;/span&gt;&lt;span style=&quot;font-weight: normal; white-space: pre;&quot;&gt;&#x9;&lt;/span&gt;&lt;span style=&quot;font-weight: normal; white-space: pre;&quot;&gt;&#x9;&lt;/span&gt;SGO007&lt;/span&gt;&lt;br&gt;&lt;span style=&quot;background-color: initial; font-family: Verdana; font-weight: normal;&quot;&gt;Item: &lt;span style=&quot;white-space: pre;&quot;&gt;&#x9;&lt;span style=&quot;white-space: pre;&quot;&gt;&#x9;&lt;/span&gt;&lt;/span&gt;&lt;/span&gt;&lt;b style=&quot;background-color: initial; font-family: Verdana;&quot;&gt;10054&lt;/b&gt;&lt;br&gt;&lt;span style=&quot;background-color: initial; font-weight: normal; font-family: Verdana;&quot;&gt;Overall Rating: &lt;span style=&quot;white-space: pre;&quot;&gt;&#x9;&lt;/span&gt;&lt;/span&gt;&lt;b style=&quot;font-family: Verdana; background-color: rgb(153, 255, 153);&quot;&gt;4.0&lt;/b&gt;&lt;br&gt;&lt;font style=&quot;font-family: Verdana; background-color: initial; font-weight: normal;&quot;&gt;&lt;u&gt;Aspects&lt;/u&gt;&lt;/font&gt;&lt;span style=&quot;font-family: Verdana; background-color: initial; font-weight: normal;&quot;&gt;:&lt;/span&gt;&lt;br&gt;&lt;/h1&gt;&lt;div style=&quot;text-align: justify; font-size: 14px;&quot;&gt;&lt;ul&gt;&lt;li&gt;&lt;font style=&quot;font-size: 14px;&quot; face=&quot;Verdana&quot;&gt;Service:&lt;b&gt; &lt;span style=&quot;white-space: pre;&quot;&gt;&#x9;&lt;/span&gt;&lt;span style=&quot;white-space: pre;&quot;&gt;&#x9;&lt;/span&gt;&lt;span style=&quot;background-color: rgb(153, 255, 153);&quot;&gt;5.0&lt;/span&gt;&lt;/b&gt;&lt;/font&gt;&lt;/li&gt;&lt;li&gt;&lt;font style=&quot;font-size: 14px;&quot; face=&quot;Verdana&quot;&gt;Cleanliness:&lt;b&gt; &lt;span style=&quot;white-space: pre;&quot;&gt;&#x9;&lt;/span&gt;&lt;span style=&quot;background-color: rgb(153, 255, 153);&quot;&gt;5.0&lt;/span&gt;&lt;/b&gt;&lt;/font&gt;&lt;/li&gt;&lt;li&gt;&lt;font style=&quot;font-size: 14px;&quot; face=&quot;Verdana&quot;&gt;Room:&lt;b&gt; &lt;span style=&quot;white-space: pre;&quot;&gt;&#x9;&lt;/span&gt;&lt;span style=&quot;white-space: pre;&quot;&gt;&#x9;&lt;/span&gt;&lt;span style=&quot;background-color: rgb(204, 255, 204);&quot;&gt;3.0&lt;/span&gt;&lt;/b&gt;&lt;/font&gt;&lt;/li&gt;&lt;li&gt;&lt;font style=&quot;font-size: 14px;&quot; face=&quot;Verdana&quot;&gt;Sleep quality:&lt;b&gt; &lt;span style=&quot;white-space: pre;&quot;&gt;&#x9;&lt;/span&gt;&lt;span style=&quot;background-color: rgb(204, 255, 204);&quot;&gt;3.0&lt;/span&gt;&lt;/b&gt;&lt;/font&gt;&lt;/li&gt;&lt;li&gt;&lt;font style=&quot;font-size: 14px;&quot; face=&quot;Verdana&quot;&gt;Location:&lt;b&gt; &lt;span style=&quot;white-space: pre;&quot;&gt;&#x9;&lt;span style=&quot;white-space: pre;&quot;&gt;&#x9;&lt;/span&gt;&lt;/span&gt;&lt;span style=&quot;background-color: rgb(204, 255, 204);&quot;&gt;3.0&lt;/span&gt;&lt;/b&gt;&lt;/font&gt;&lt;/li&gt;&lt;li&gt;&lt;font style=&quot;font-size: 14px;&quot; face=&quot;Verdana&quot;&gt;Value:&lt;b&gt; &lt;span style=&quot;white-space: pre;&quot;&gt;&#x9;&lt;/span&gt;&lt;span style=&quot;white-space: pre;&quot;&gt;&#x9;&lt;/span&gt;&lt;span style=&quot;background-color: rgb(255, 204, 204);&quot;&gt;2.0&lt;/span&gt;&lt;/b&gt;&lt;/font&gt;&lt;/li&gt;&lt;/ul&gt;&lt;/div&gt;&lt;div style=&quot;text-align: justify; font-size: 14px;&quot;&gt;&lt;br&gt;&lt;/div&gt;" style="text;html=1;whiteSpace=wrap;overflow=hidden;rounded=0;" vertex="1" parent="1">
          <mxGeometry x="580" y="160" width="220" height="210" as="geometry" />
        </mxCell>
      </root>
    </mxGraphModel>
  </diagram>
</mxfile>
